<svg id="my-svg" width="100%" xmlns="http://www.w3.org/2000/svg" xmlns:xlink="http://www.w3.org/1999/xlink" style="max-width: 992.629px; background-color: white;" viewBox="-8 -8 992.62890625 1968.484375" role="graphics-document document" aria-roledescription="flowchart-v2"><style>#my-svg{font-family:"trebuchet ms",verdana,arial,sans-serif;font-size:16px;fill:#333;}#my-svg .error-icon{fill:#552222;}#my-svg .error-text{fill:#552222;stroke:#552222;}#my-svg .edge-thickness-normal{stroke-width:2px;}#my-svg .edge-thickness-thick{stroke-width:3.5px;}#my-svg .edge-pattern-solid{stroke-dasharray:0;}#my-svg .edge-pattern-dashed{stroke-dasharray:3;}#my-svg .edge-pattern-dotted{stroke-dasharray:2;}#my-svg .marker{fill:#333333;stroke:#333333;}#my-svg .marker.cross{stroke:#333333;}#my-svg svg{font-family:"trebuchet ms",verdana,arial,sans-serif;font-size:16px;}#my-svg .label{font-family:"trebuchet ms",verdana,arial,sans-serif;color:#333;}#my-svg .cluster-label text{fill:#333;}#my-svg .cluster-label span,#my-svg p{color:#333;}#my-svg .label text,#my-svg span,#my-svg p{fill:#333;color:#333;}#my-svg .node rect,#my-svg .node circle,#my-svg .node ellipse,#my-svg .node polygon,#my-svg .node path{fill:#ECECFF;stroke:#9370DB;stroke-width:1px;}#my-svg .flowchart-label text{text-anchor:middle;}#my-svg .node .katex path{fill:#000;stroke:#000;stroke-width:1px;}#my-svg .node .label{text-align:center;}#my-svg .node.clickable{cursor:pointer;}#my-svg .arrowheadPath{fill:#333333;}#my-svg .edgePath .path{stroke:#333333;stroke-width:2.0px;}#my-svg .flowchart-link{stroke:#333333;fill:none;}#my-svg .edgeLabel{background-color:#e8e8e8;text-align:center;}#my-svg .edgeLabel rect{opacity:0.5;background-color:#e8e8e8;fill:#e8e8e8;}#my-svg .labelBkg{background-color:rgba(232, 232, 232, 0.5);}#my-svg .cluster rect{fill:#ffffde;stroke:#aaaa33;stroke-width:1px;}#my-svg .cluster text{fill:#333;}#my-svg .cluster span,#my-svg p{color:#333;}#my-svg div.mermaidTooltip{position:absolute;text-align:center;max-width:200px;padding:2px;font-family:"trebuchet ms",verdana,arial,sans-serif;font-size:12px;background:hsl(80, 100%, 96.2745098039%);border:1px solid #aaaa33;border-radius:2px;pointer-events:none;z-index:100;}#my-svg .flowchartTitleText{text-anchor:middle;font-size:18px;fill:#333;}#my-svg :root{--mermaid-font-family:"trebuchet ms",verdana,arial,sans-serif;}#my-svg .good&gt;*{fill:rgb(220, 252, 231)!important;stroke:rgb(22, 163, 74)!important;color:rgb(20, 83, 45)!important;}#my-svg .good span{fill:rgb(220, 252, 231)!important;stroke:rgb(22, 163, 74)!important;color:rgb(20, 83, 45)!important;}#my-svg .good tspan{fill:rgb(20, 83, 45)!important;}#my-svg .bad&gt;*{fill:rgb(254, 226, 226)!important;stroke:rgb(220, 38, 38)!important;color:rgb(127, 29, 29)!important;}#my-svg .bad span{fill:rgb(254, 226, 226)!important;stroke:rgb(220, 38, 38)!important;color:rgb(127, 29, 29)!important;}#my-svg .bad tspan{fill:rgb(127, 29, 29)!important;}#my-svg .neutral&gt;*{fill:rgb(254, 243, 199)!important;stroke:rgb(217, 119, 6)!important;color:rgb(120, 53, 15)!important;}#my-svg .neutral span{fill:rgb(254, 243, 199)!important;stroke:rgb(217, 119, 6)!important;color:rgb(120, 53, 15)!important;}#my-svg .neutral tspan{fill:rgb(120, 53, 15)!important;}</style><g><marker id="my-svg_flowchart-pointEnd" class="marker flowchart" viewBox="0 0 10 10" refX="6" refY="5" markerUnits="userSpaceOnUse" markerWidth="12" markerHeight="12" orient="auto"><path d="M 0 0 L 10 5 L 0 10 z" class="arrowMarkerPath" style="stroke-width: 1; stroke-dasharray: 1, 0;"/></marker><marker id="my-svg_flowchart-pointStart" class="marker flowchart" viewBox="0 0 10 10" refX="4.5" refY="5" markerUnits="userSpaceOnUse" markerWidth="12" markerHeight="12" orient="auto"><path d="M 0 5 L 10 10 L 10 0 z" class="arrowMarkerPath" style="stroke-width: 1; stroke-dasharray: 1, 0;"/></marker><marker id="my-svg_flowchart-circleEnd" class="marker flowchart" viewBox="0 0 10 10" refX="11" refY="5" markerUnits="userSpaceOnUse" markerWidth="11" markerHeight="11" orient="auto"><circle cx="5" cy="5" r="5" class="arrowMarkerPath" style="stroke-width: 1; stroke-dasharray: 1, 0;"/></marker><marker id="my-svg_flowchart-circleStart" class="marker flowchart" viewBox="0 0 10 10" refX="-1" refY="5" markerUnits="userSpaceOnUse" markerWidth="11" markerHeight="11" orient="auto"><circle cx="5" cy="5" r="5" class="arrowMarkerPath" style="stroke-width: 1; stroke-dasharray: 1, 0;"/></marker><marker id="my-svg_flowchart-crossEnd" class="marker cross flowchart" viewBox="0 0 11 11" refX="12" refY="5.2" markerUnits="userSpaceOnUse" markerWidth="11" markerHeight="11" orient="auto"><path d="M 1,1 l 9,9 M 10,1 l -9,9" class="arrowMarkerPath" style="stroke-width: 2; stroke-dasharray: 1, 0;"/></marker><marker id="my-svg_flowchart-crossStart" class="marker cross flowchart" viewBox="0 0 11 11" refX="-1" refY="5.2" markerUnits="userSpaceOnUse" markerWidth="11" markerHeight="11" orient="auto"><path d="M 1,1 l 9,9 M 10,1 l -9,9" class="arrowMarkerPath" style="stroke-width: 2; stroke-dasharray: 1, 0;"/></marker><g class="root"><g class="clusters"/><g class="edgePaths"><path d="M524.301,34L524.301,38.167C524.301,42.333,524.301,50.667,524.301,58.117C524.301,65.567,524.301,72.133,524.301,75.417L524.301,78.7" id="L-Start-A-0" class="edge-thickness-normal edge-pattern-solid flowchart-link LS-Start LE-A" style="fill:none;" marker-end="url(#my-svg_flowchart-pointEnd)"/><path d="M524.301,118L524.301,122.167C524.301,126.333,524.301,134.667,524.367,142.2C524.433,149.734,524.565,156.467,524.631,159.834L524.697,163.201" id="L-A-B-0" class="edge-thickness-normal edge-pattern-solid flowchart-link LS-A LE-B" style="fill:none;" marker-end="url(#my-svg_flowchart-pointEnd)"/><path d="M524.801,321.219L524.717,326.885C524.634,332.552,524.467,343.885,524.384,354.419C524.301,364.952,524.301,374.685,524.301,379.552L524.301,384.419" id="L-B-C-0" class="edge-thickness-normal edge-pattern-solid flowchart-link LS-B LE-C" style="fill:none;" marker-end="url(#my-svg_flowchart-pointEnd)"/><path d="M524.301,423.719L524.301,427.885C524.301,432.052,524.301,440.385,524.301,447.835C524.301,455.285,524.301,461.852,524.301,465.135L524.301,468.419" id="L-C-D-0" class="edge-thickness-normal edge-pattern-solid flowchart-link LS-C LE-D" style="fill:none;" marker-end="url(#my-svg_flowchart-pointEnd)"/><path d="M524.301,507.719L524.301,511.885C524.301,516.052,524.301,524.385,524.301,531.835C524.301,539.285,524.301,545.852,524.301,549.135L524.301,552.419" id="L-D-E-0" class="edge-thickness-normal edge-pattern-solid flowchart-link LS-D LE-E" style="fill:none;" marker-end="url(#my-svg_flowchart-pointEnd)"/><path d="M486.147,591.719L476.796,595.885C467.445,600.052,448.742,608.385,439.456,615.919C430.171,623.452,430.303,630.186,430.369,633.553L430.435,636.92" id="L-E-Input-0" class="edge-thickness-normal edge-pattern-solid flowchart-link LS-E LE-Input" style="fill:none;" marker-end="url(#my-svg_flowchart-pointEnd)"/><path d="M390.638,735.802L372.122,748.119C353.605,760.436,316.572,785.07,298.126,802.336C279.68,819.603,279.822,829.503,279.893,834.454L279.963,839.404" id="L-Input-G-0" class="edge-thickness-normal edge-pattern-solid flowchart-link LS-Input LE-G" style="fill:none;" marker-end="url(#my-svg_flowchart-pointEnd)"/><path d="M479.296,726.946L516.829,740.739C554.363,754.532,629.429,782.118,666.963,822.925C704.496,863.733,704.496,917.764,704.496,944.779L704.496,971.794" id="L-Input-NoPin-0" class="edge-thickness-normal edge-pattern-solid flowchart-link LS-Input LE-NoPin" style="fill:none;" marker-end="url(#my-svg_flowchart-pointEnd)"/><path d="M704.496,1011.094L704.496,1038.992C704.496,1066.891,704.496,1122.688,714.03,1161.432C723.565,1200.176,742.634,1221.868,752.168,1232.714L761.702,1243.56" id="L-NoPin-NoCount-0" class="edge-thickness-normal edge-pattern-solid flowchart-link LS-NoPin LE-NoCount" style="fill:none;" marker-end="url(#my-svg_flowchart-pointEnd)"/><path d="M833.314,1247.541L843.265,1236.031C853.216,1224.522,873.118,1201.503,883.069,1159.262C893.02,1117.021,893.02,1055.557,893.02,994.094C893.02,932.63,893.02,871.167,893.02,823.561C893.02,775.956,893.02,742.208,893.02,710.044C893.02,677.88,893.02,647.299,849.552,627.058C806.085,606.816,719.15,596.914,675.683,591.962L632.215,587.011" id="L-NoCount-E-0" class="edge-thickness-normal edge-pattern-solid flowchart-link LS-NoCount LE-E" style="fill:none;" marker-end="url(#my-svg_flowchart-pointEnd)"/><path d="M799.258,1359.156L799.174,1364.823C799.091,1370.49,798.924,1381.823,798.841,1392.356C798.758,1402.89,798.758,1412.623,798.758,1417.49L798.758,1422.356" id="L-NoCount-EndNoPin-0" class="edge-thickness-normal edge-pattern-solid flowchart-link LS-NoCount LE-EndNoPin" style="fill:none;" marker-end="url(#my-svg_flowchart-pointEnd)"/><path d="M205.864,1070.309L188.036,1088.338C170.209,1106.367,134.554,1142.426,116.726,1178.344C98.898,1214.263,98.898,1250.042,98.898,1285.82C98.898,1321.599,98.898,1357.378,98.898,1383.85C98.898,1410.323,98.898,1427.49,98.898,1443.073C98.898,1458.656,98.898,1472.656,98.898,1497.975C98.898,1523.294,98.898,1559.932,98.898,1598.154C98.898,1636.375,98.898,1676.18,101.854,1701.072C104.809,1725.964,110.719,1735.944,113.675,1740.934L116.63,1745.924" id="L-G-H-0" class="edge-thickness-normal edge-pattern-solid flowchart-link LS-G LE-H" style="fill:none;" marker-end="url(#my-svg_flowchart-pointEnd)"/><path d="M129.398,1784.484L129.398,1788.651C129.398,1792.818,129.398,1801.151,129.398,1808.601C129.398,1816.051,129.398,1822.618,129.398,1825.901L129.398,1829.184" id="L-H-I-0" class="edge-thickness-normal edge-pattern-solid flowchart-link LS-H LE-I" style="fill:none;" marker-end="url(#my-svg_flowchart-pointEnd)"/><path d="M129.398,1868.484L129.398,1872.651C129.398,1876.818,129.398,1885.151,129.398,1892.601C129.398,1900.051,129.398,1906.618,129.398,1909.901L129.398,1913.184" id="L-I-Done-0" class="edge-thickness-normal edge-pattern-solid flowchart-link LS-I LE-Done" style="fill:none;" marker-end="url(#my-svg_flowchart-pointEnd)"/><path d="M333.669,1090.854L341.769,1105.459C349.869,1120.064,366.069,1149.274,374.169,1178.052C382.27,1206.83,382.27,1235.175,382.27,1249.348L382.27,1263.52" id="L-G-J-0" class="edge-thickness-normal edge-pattern-solid flowchart-link LS-G LE-J" style="fill:none;" marker-end="url(#my-svg_flowchart-pointEnd)"/><path d="M382.27,1302.82L382.27,1317.876C382.27,1332.932,382.27,1363.044,382.27,1382.967C382.27,1402.89,382.27,1412.623,382.27,1417.49L382.27,1422.356" id="L-J-Retry-0" class="edge-thickness-normal edge-pattern-solid flowchart-link LS-J LE-Retry" style="fill:none;" marker-end="url(#my-svg_flowchart-pointEnd)"/><path d="M382.27,1461.656L382.27,1465.823C382.27,1469.99,382.27,1478.323,382.336,1485.856C382.402,1493.39,382.534,1500.124,382.6,1503.49L382.666,1506.857" id="L-Retry-G2-0" class="edge-thickness-normal edge-pattern-solid flowchart-link LS-Retry LE-G2" style="fill:none;" marker-end="url(#my-svg_flowchart-pointEnd)"/><path d="M335.473,1634.688L318.249,1648.237C301.025,1661.787,266.577,1688.885,238.673,1707.789C210.768,1726.693,189.408,1737.401,178.728,1742.755L168.047,1748.109" id="L-G2-H-0" class="edge-thickness-normal edge-pattern-solid flowchart-link LS-G2 LE-H" style="fill:none;" marker-end="url(#my-svg_flowchart-pointEnd)"/><path d="M414.622,1650.132L421.177,1661.107C427.732,1672.083,440.843,1694.034,447.398,1709.876C453.953,1725.718,453.953,1735.451,453.953,1740.318L453.953,1745.184" id="L-G2-L-0" class="edge-thickness-normal edge-pattern-solid flowchart-link LS-G2 LE-L" style="fill:none;" marker-end="url(#my-svg_flowchart-pointEnd)"/></g><g class="edgeLabels"><g class="edgeLabel"><g class="label" transform="translate(0, 0)"><foreignObject width="0" height="0"><div xmlns="http://www.w3.org/1999/xhtml" style="display: inline-block; white-space: nowrap;"><span class="edgeLabel"></span></div></foreignObject></g></g><g class="edgeLabel"><g class="label" transform="translate(0, 0)"><foreignObject width="0" height="0"><div xmlns="http://www.w3.org/1999/xhtml" style="display: inline-block; white-space: nowrap;"><span class="edgeLabel"></span></div></foreignObject></g></g><g class="edgeLabel" transform="translate(524.30078125, 355.21875)"><g class="label" transform="translate(-14.4375, -9.5)"><foreignObject width="28.875" height="19"><div xmlns="http://www.w3.org/1999/xhtml" style="display: inline-block; white-space: nowrap;"><span class="edgeLabel">Miss</span></div></foreignObject></g></g><g class="edgeLabel"><g class="label" transform="translate(0, 0)"><foreignObject width="0" height="0"><div xmlns="http://www.w3.org/1999/xhtml" style="display: inline-block; white-space: nowrap;"><span class="edgeLabel"></span></div></foreignObject></g></g><g class="edgeLabel"><g class="label" transform="translate(0, 0)"><foreignObject width="0" height="0"><div xmlns="http://www.w3.org/1999/xhtml" style="display: inline-block; white-space: nowrap;"><span class="edgeLabel"></span></div></foreignObject></g></g><g class="edgeLabel"><g class="label" transform="translate(0, 0)"><foreignObject width="0" height="0"><div xmlns="http://www.w3.org/1999/xhtml" style="display: inline-block; white-space: nowrap;"><span class="edgeLabel"></span></div></foreignObject></g></g><g class="edgeLabel" transform="translate(279.5390625, 809.703125)"><g class="label" transform="translate(-43.359375, -9.5)"><foreignObject width="86.71875" height="19"><div xmlns="http://www.w3.org/1999/xhtml" style="display: inline-block; white-space: nowrap;"><span class="edgeLabel">Enters a PIN</span></div></foreignObject></g></g><g class="edgeLabel" transform="translate(704.49609375, 809.703125)"><g class="label" transform="translate(-84.9140625, -9.5)"><foreignObject width="169.828125" height="19"><div xmlns="http://www.w3.org/1999/xhtml" style="display: inline-block; white-space: nowrap;"><span class="edgeLabel">No PIN entered timeout</span></div></foreignObject></g></g><g class="edgeLabel"><g class="label" transform="translate(0, 0)"><foreignObject width="0" height="0"><div xmlns="http://www.w3.org/1999/xhtml" style="display: inline-block; white-space: nowrap;"><span class="edgeLabel"></span></div></foreignObject></g></g><g class="edgeLabel" transform="translate(893.01953125, 809.703125)"><g class="label" transform="translate(-83.609375, -9.5)"><foreignObject width="167.21875" height="19"><div xmlns="http://www.w3.org/1999/xhtml" style="display: inline-block; white-space: nowrap;"><span class="edgeLabel">First or second timeout</span></div></foreignObject></g></g><g class="edgeLabel" transform="translate(798.7578125, 1393.15625)"><g class="label" transform="translate(-49.5703125, -9.5)"><foreignObject width="99.140625" height="19"><div xmlns="http://www.w3.org/1999/xhtml" style="display: inline-block; white-space: nowrap;"><span class="edgeLabel">Third timeout</span></div></foreignObject></g></g><g class="edgeLabel" transform="translate(98.8984375, 1444.65625)"><g class="label" transform="translate(-12.6953125, -9.5)"><foreignObject width="25.390625" height="19"><div xmlns="http://www.w3.org/1999/xhtml" style="display: inline-block; white-space: nowrap;"><span class="edgeLabel">YES</span></div></foreignObject></g></g><g class="edgeLabel"><g class="label" transform="translate(0, 0)"><foreignObject width="0" height="0"><div xmlns="http://www.w3.org/1999/xhtml" style="display: inline-block; white-space: nowrap;"><span class="edgeLabel"></span></div></foreignObject></g></g><g class="edgeLabel"><g class="label" transform="translate(0, 0)"><foreignObject width="0" height="0"><div xmlns="http://www.w3.org/1999/xhtml" style="display: inline-block; white-space: nowrap;"><span class="edgeLabel"></span></div></foreignObject></g></g><g class="edgeLabel" transform="translate(382.26953125, 1178.484375)"><g class="label" transform="translate(-36.40625, -9.5)"><foreignObject width="72.8125" height="19"><div xmlns="http://www.w3.org/1999/xhtml" style="display: inline-block; white-space: nowrap;"><span class="edgeLabel">Wrong PIN</span></div></foreignObject></g></g><g class="edgeLabel"><g class="label" transform="translate(0, 0)"><foreignObject width="0" height="0"><div xmlns="http://www.w3.org/1999/xhtml" style="display: inline-block; white-space: nowrap;"><span class="edgeLabel"></span></div></foreignObject></g></g><g class="edgeLabel"><g class="label" transform="translate(0, 0)"><foreignObject width="0" height="0"><div xmlns="http://www.w3.org/1999/xhtml" style="display: inline-block; white-space: nowrap;"><span class="edgeLabel"></span></div></foreignObject></g></g><g class="edgeLabel" transform="translate(232.12890625, 1715.984375)"><g class="label" transform="translate(-41, -9.5)"><foreignObject width="82" height="19"><div xmlns="http://www.w3.org/1999/xhtml" style="display: inline-block; white-space: nowrap;"><span class="edgeLabel">Correct PIN</span></div></foreignObject></g></g><g class="edgeLabel" transform="translate(453.953125, 1715.984375)"><g class="label" transform="translate(-82.3671875, -9.5)"><foreignObject width="164.734375" height="19"><div xmlns="http://www.w3.org/1999/xhtml" style="display: inline-block; white-space: nowrap;"><span class="edgeLabel">Wrong PIN second time</span></div></foreignObject></g></g></g><g class="nodes"><g class="node default default flowchart-label" id="flowchart-Start-0" data-node="true" data-id="Start" transform="translate(524.30078125, 17)"><rect class="basic label-container" style="" rx="0" ry="0" x="-144.90625" y="-17" width="289.8125" height="34"/><g class="label" style="" transform="translate(-137.40625, -9.5)"><rect/><foreignObject width="274.8125" height="19"><div xmlns="http://www.w3.org/1999/xhtml" style="display: inline-block; white-space: nowrap;"><span class="nodeLabel">Unknown mobile dials masked number</span></div></foreignObject></g></g><g class="node default default flowchart-label" id="flowchart-A-1" data-node="true" data-id="A" transform="translate(524.30078125, 101)"><rect class="basic label-container" style="" rx="0" ry="0" x="-66.0234375" y="-17" width="132.046875" height="34"/><g class="label" style="" transform="translate(-58.5234375, -9.5)"><rect/><foreignObject width="117.046875" height="19"><div xmlns="http://www.w3.org/1999/xhtml" style="display: inline-block; white-space: nowrap;"><span class="nodeLabel">Call lands at IVR</span></div></foreignObject></g></g><g class="node default default flowchart-label" id="flowchart-B-3" data-node="true" data-id="B" transform="translate(524.30078125, 244.359375)"><polygon points="76.359375,0 152.71875,-76.359375 76.359375,-152.71875 0,-76.359375" class="label-container" transform="translate(-76.359375,76.359375)" style=""/><g class="label" style="" transform="translate(-51.859375, -9.5)"><rect/><foreignObject width="103.71875" height="19"><div xmlns="http://www.w3.org/1999/xhtml" style="display: inline-block; white-space: nowrap;"><span class="nodeLabel">Table 1 lookup</span></div></foreignObject></g></g><g class="node default default flowchart-label" id="flowchart-C-5" data-node="true" data-id="C" transform="translate(524.30078125, 406.71875)"><rect class="basic label-container" style="" rx="0" ry="0" x="-94.9921875" y="-17" width="189.984375" height="34"/><g class="label" style="" transform="translate(-87.4921875, -9.5)"><rect/><foreignObject width="174.984375" height="19"><div xmlns="http://www.w3.org/1999/xhtml" style="display: inline-block; white-space: nowrap;"><span class="nodeLabel">Identification chain runs</span></div></foreignObject></g></g><g class="node default neutral flowchart-label" id="flowchart-D-7" data-node="true" data-id="D" transform="translate(524.30078125, 490.71875)"><rect class="basic label-container" style="" rx="0" ry="0" x="-151.6796875" y="-17" width="303.359375" height="34"/><g class="label" style="" transform="translate(-144.1796875, -9.5)"><rect/><foreignObject width="288.359375" height="19"><div xmlns="http://www.w3.org/1999/xhtml" style="display: inline-block; white-space: nowrap;"><span class="nodeLabel">All three lookups miss caller is Unknown</span></div></foreignObject></g></g><g class="node default default flowchart-label" id="flowchart-E-9" data-node="true" data-id="E" transform="translate(524.30078125, 574.71875)"><rect class="basic label-container" style="" rx="0" ry="0" x="-102.6484375" y="-17" width="205.296875" height="34"/><g class="label" style="" transform="translate(-95.1484375, -9.5)"><rect/><foreignObject width="190.296875" height="19"><div xmlns="http://www.w3.org/1999/xhtml" style="display: inline-block; white-space: nowrap;"><span class="nodeLabel">IVR plays Ask for PIN audio</span></div></foreignObject></g></g><g class="node default default flowchart-label" id="flowchart-Input-11" data-node="true" data-id="Input" transform="translate(430.0390625, 708.4609375)"><polygon points="66.7421875,0 133.484375,-66.7421875 66.7421875,-133.484375 0,-66.7421875" class="label-container" transform="translate(-66.7421875,66.7421875)" style=""/><g class="label" style="" transform="translate(-42.2421875, -9.5)"><rect/><foreignObject width="84.484375" height="19"><div xmlns="http://www.w3.org/1999/xhtml" style="display: inline-block; white-space: nowrap;"><span class="nodeLabel">Caller input</span></div></foreignObject></g></g><g class="node default default flowchart-label" id="flowchart-G-13" data-node="true" data-id="G" transform="translate(279.5390625, 994.09375)"><polygon points="149.890625,0 299.78125,-149.890625 149.890625,-299.78125 0,-149.890625" class="label-container" transform="translate(-149.890625,149.890625)" style=""/><g class="label" style="" transform="translate(-125.390625, -9.5)"><rect/><foreignObject width="250.78125" height="19"><div xmlns="http://www.w3.org/1999/xhtml" style="display: inline-block; white-space: nowrap;"><span class="nodeLabel">PIN valid and maps to active ticket</span></div></foreignObject></g></g><g class="node default default flowchart-label" id="flowchart-NoPin-15" data-node="true" data-id="NoPin" transform="translate(704.49609375, 994.09375)"><rect class="basic label-container" style="" rx="0" ry="0" x="-101.109375" y="-17" width="202.21875" height="34"/><g class="label" style="" transform="translate(-93.609375, -9.5)"><rect/><foreignObject width="187.21875" height="19"><div xmlns="http://www.w3.org/1999/xhtml" style="display: inline-block; white-space: nowrap;"><span class="nodeLabel">Play No PIN entered audio</span></div></foreignObject></g></g><g class="node default default flowchart-label" id="flowchart-NoCount-17" data-node="true" data-id="NoCount" transform="translate(798.7578125, 1285.8203125)"><polygon points="72.8359375,0 145.671875,-72.8359375 72.8359375,-145.671875 0,-72.8359375" class="label-container" transform="translate(-72.8359375,72.8359375)" style=""/><g class="label" style="" transform="translate(-48.3359375, -9.5)"><rect/><foreignObject width="96.671875" height="19"><div xmlns="http://www.w3.org/1999/xhtml" style="display: inline-block; white-space: nowrap;"><span class="nodeLabel">Prompt count</span></div></foreignObject></g></g><g class="node default bad flowchart-label" id="flowchart-EndNoPin-21" data-node="true" data-id="EndNoPin" transform="translate(798.7578125, 1444.65625)"><rect class="basic label-container" style="" rx="0" ry="0" x="-135.6875" y="-17" width="271.375" height="34"/><g class="label" style="" transform="translate(-128.1875, -9.5)"><rect/><foreignObject width="256.375" height="19"><div xmlns="http://www.w3.org/1999/xhtml" style="display: inline-block; white-space: nowrap;"><span class="nodeLabel">End call no PIN entered three times</span></div></foreignObject></g></g><g class="node default default flowchart-label" id="flowchart-H-23" data-node="true" data-id="H" transform="translate(129.3984375, 1767.484375)"><rect class="basic label-container" style="" rx="0" ry="0" x="-129.3984375" y="-17" width="258.796875" height="34"/><g class="label" style="" transform="translate(-121.8984375, -9.5)"><rect/><foreignObject width="243.796875" height="19"><div xmlns="http://www.w3.org/1999/xhtml" style="display: inline-block; white-space: nowrap;"><span class="nodeLabel">API 3 returns counterparty mobile</span></div></foreignObject></g></g><g class="node default good flowchart-label" id="flowchart-I-25" data-node="true" data-id="I" transform="translate(129.3984375, 1851.484375)"><rect class="basic label-container" style="" rx="0" ry="0" x="-89.0703125" y="-17" width="178.140625" height="34"/><g class="label" style="" transform="translate(-81.5703125, -9.5)"><rect/><foreignObject width="163.140625" height="19"><div xmlns="http://www.w3.org/1999/xhtml" style="display: inline-block; white-space: nowrap;"><span class="nodeLabel">Bridge to counterparty</span></div></foreignObject></g></g><g class="node default good flowchart-label" id="flowchart-Done-27" data-node="true" data-id="Done" transform="translate(129.3984375, 1935.484375)"><rect class="basic label-container" style="" rx="0" ry="0" x="-55.3515625" y="-17" width="110.703125" height="34"/><g class="label" style="" transform="translate(-47.8515625, -9.5)"><rect/><foreignObject width="95.703125" height="19"><div xmlns="http://www.w3.org/1999/xhtml" style="display: inline-block; white-space: nowrap;"><span class="nodeLabel">Call connects</span></div></foreignObject></g></g><g class="node default default flowchart-label" id="flowchart-J-29" data-node="true" data-id="J" transform="translate(382.26953125, 1285.8203125)"><rect class="basic label-container" style="" rx="0" ry="0" x="-83.3046875" y="-17" width="166.609375" height="34"/><g class="label" style="" transform="translate(-75.8046875, -9.5)"><rect/><foreignObject width="151.609375" height="19"><div xmlns="http://www.w3.org/1999/xhtml" style="display: inline-block; white-space: nowrap;"><span class="nodeLabel">Play Wrong PIN audio</span></div></foreignObject></g></g><g class="node default default flowchart-label" id="flowchart-Retry-31" data-node="true" data-id="Retry" transform="translate(382.26953125, 1444.65625)"><rect class="basic label-container" style="" rx="0" ry="0" x="-157.765625" y="-17" width="315.53125" height="34"/><g class="label" style="" transform="translate(-150.265625, -9.5)"><rect/><foreignObject width="300.53125" height="19"><div xmlns="http://www.w3.org/1999/xhtml" style="display: inline-block; white-space: nowrap;"><span class="nodeLabel">IVR plays Ask for PIN audio one more time</span></div></foreignObject></g></g><g class="node default default flowchart-label" id="flowchart-G2-33" data-node="true" data-id="G2" transform="translate(382.26953125, 1596.5703125)"><polygon points="84.9140625,0 169.828125,-84.9140625 84.9140625,-169.828125 0,-84.9140625" class="label-container" transform="translate(-84.9140625,84.9140625)" style=""/><g class="label" style="" transform="translate(-60.4140625, -9.5)"><rect/><foreignObject width="120.828125" height="19"><div xmlns="http://www.w3.org/1999/xhtml" style="display: inline-block; white-space: nowrap;"><span class="nodeLabel">Caller enters PIN</span></div></foreignObject></g></g><g class="node default bad flowchart-label" id="flowchart-L-37" data-node="true" data-id="L" transform="translate(453.953125, 1767.484375)"><rect class="basic label-container" style="" rx="0" ry="0" x="-120.8828125" y="-17" width="241.765625" height="34"/><g class="label" style="" transform="translate(-113.3828125, -9.5)"><rect/><foreignObject width="226.765625" height="19"><div xmlns="http://www.w3.org/1999/xhtml" style="display: inline-block; white-space: nowrap;"><span class="nodeLabel">Play Limit reached and end call</span></div></foreignObject></g></g></g></g></g></svg>